# AST/ASF file generated using VICON BodyLanguage
# -----------------------------------------------
:version 1.10
:name VICON
:units
  mass 1.0
  length 0.45
  angle deg
:documentation
   .ast/.asf automatically generated from VICON data using
   VICON BodyBuilder and BodyLanguage model FoxedUp or BRILLIANT.MOD
:root
   order TX TY TZ RX RY RZ
   axis XYZ
   position 0 0 0  
   orientation 0 0 0 
:bonedata
  begin
     id 1 
     name lhipjoint
     direction 0.528046 -0.759594 0.379717 
     length 2.39752 
     axis 0 0 0  XYZ
  end
  begin
     id 2 
     name lfemur
     direction 0.34202 -0.939693 0  
     length 7.31175  
     axis 0 0 20  XYZ
    dof rx ry rz
    limits (-160.0 20.0)
           (-70.0 70.0)
           (-60.0 70.0)
  end
  begin
     id 3 
     name ltibia
     direction 0.34202 -0.939693 0   
     length 7.52482   
     axis 0 0 20   XYZ
    dof rx
    limits (-10.0 170.0)
  end
  begin
     id 4 
     name lfoot
     direction 0.0675379 -0.185559 0.980309   
     length 2.00961   
     axis -90 7.62852e-016 20   XYZ
    dof rx rz
    limits (-45.0 90.0)
           (-70.0 20.0)
  end
  begin
     id 5 
     name ltoes
     direction 1.5352e-011 -4.22286e-011 1   
     length 1.01383   
     axis -90 7.62852e-016 20   XYZ
    dof rx
    limits (-90.0 20.0)
  end
  begin
     id 6 
     name rhipjoint
     direction -0.510274 -0.769251 0.384544   
     length 2.36742  
     axis 0 0 0  XYZ 
  end
  begin
     id 7 
     name rfemur
     direction -0.34202 -0.939693 0   
     length 7.45325   
     axis 0 0 -20   XYZ
    dof rx ry rz
    limits (-160.0 20.0)
           (-70.0 70.0)
           (-70.0 60.0)
  end
  begin
     id 8 
     name rtibia
     direction -0.34202 -0.939693 0   
     length 7.49587   
     axis 0 0 -20   XYZ
    dof rx
    limits (-10.0 170.0)
 end
 begin
     id 9 
     name rfoot
     direction -0.106475 -0.292536 0.950308   
     length 2.20898  
     axis -90 -7.62852e-016 -20   XYZ
    dof rx rz
    limits (-45.0 90.0)
           (-20.0 70.0)
  end
  begin
     id 10 
     name rtoes
     direction -1.53597e-011 -4.22023e-011 1   
     length 1.10065   
     axis -90 -7.62852e-016 -20   XYZ
    dof rx
    limits (-90.0 20.0)
  end
  begin
     id 11 
     name lowerback
     direction 0.0260024 0.998026 -0.0571652   
     length 2.11214   
     axis 0 0 0   XYZ
    dof rx ry rz
    limits (-20.0 45.0)
           (-30.0 30.0)
           (-30.0 30.0)
  end
  begin
     id 12 
     name upperback
     direction 0.0216202 0.999542 -0.0211766   
     length 2.11689   
     axis 0 0 0   XYZ
    dof rx ry rz
    limits (-20.0 45.0)
           (-30.0 30.0)
           (-30.0 30.0)
  end
  begin
     id 13 
     name thorax
     direction 0.00883312 0.999944 0.00589057   
     length 2.11821   
     axis 0 0 0   XYZ
    dof rx ry rz
    limits (-20.0 45.0)
           (-30.0 30.0)
           (-30.0 30.0)
  end
  begin
     id 14 
     name lowerneck
     direction -0.059386 0.994433 0.0870401   
     length 1.81176   
     axis 0 0 0   XYZ
    dof rx ry rz
    limits (-20.0 45.0)
           (-30.0 30.0)
           (-30.0 30.0)
  end
  begin
     id 15 
     name upperneck
     direction 0.0506457 0.97328 -0.223967   
     length 1.82382   
     axis 0 0 0   XYZ
    dof rx ry rz
    limits (-20.0 45.0)
           (-30.0 30.0)
           (-30.0 30.0)
  end
  begin
     id 16
     name head
     direction 0.0205902 0.996147 -0.0852487  
     length 1.84805  
     axis 0 0 0   XYZ
    dof rx ry rz
    limits (-20.0 45.0)
           (-30.0 30.0)
           (-30.0 30.0)
  end
  begin
     id 17 
     name lclavicle
     direction 0.949493 0.303881 -0.0782325  
     length 3.60584  
     axis 0 0 0   XYZ
    dof ry rz
    limits (-20.0 10.0)
           (0.0 20.0)
  end
  begin
     id 18 
     name lhumerus
     direction 1 -4.48965e-011 1.48782e-027   
     length 4.95681   
     axis 180 -30 -90   XYZ
    dof rx ry rz
    limits (-60.0 90.0)
           (-90.0 90.0)
           (-90.0 90.0)
  end
  begin
     id 19
     name lradius
     direction 1 -4.48952e-011 2.06528e-027   
     length 3.40915   
     axis 180 -30 -90   XYZ
    dof rx
    limits (-10.0 170.0)
  end
  begin
     id 20
     name lwrist
     direction 1 -4.48964e-011 1.28021e-027   
     length 1.70457   
     axis -1.61767e-015 90 90   XYZ
    dof ry
    limits (-180.0 0.0)
 end
  begin
     id 21 
     name lhand
     direction 1 -4.49094e-011 2.54887e-027   
     length 0.616403   
     axis -1.63363e-015 90 90   XYZ
    dof rx rz
    limits (-90.0 90.0)
           (-45.0 45.0)
  end
  begin
     id 22 
     name lfingers
     direction 1 -4.49002e-011 5.11407e-027   
     length 0.49696   
     axis -3.26723e-015 90 90   XYZ
    dof rx
    limits (0.0 90.0)
  end
  begin
     id 23
     name lthumb
     direction 0.707107 -6.34998e-011 0.707107   
     length 0.713539   
     axis -90 45 -2.25915e-014   XYZ
    dof rx rz
    limits (-45.0 45.0)
           (-45.0 45.0)
  end
  begin
     id 24 
     name rclavicle
     direction -0.937751 0.334612 -0.0930482   
     length 3.46287  
     axis 0 0 0   XYZ 
    dof ry rz
    limits (-10.0 20.0)
           (-20.0 0.0)
  end
  begin
     id 25 
     name rhumerus
     direction -1 -4.48962e-011 3.59972e-027  
     length 5.352   
     axis 180 30 90   XYZ
    dof rx ry rz
    limits (-90.0 60.0)
           (-90.0 90.0)
           (-90.0 90.0)
  end
  begin
     id 26 
     name rradius
     direction -1 -4.48987e-011 -3.76925e-027   
     length 3.43721   
     axis 180 30 90   XYZ
    dof rx
    limits (-10.0 170.0)
  end
  begin
     id 27 
     name rwrist
     direction -1 -4.48943e-011 1.28112e-027   
     length 1.7186   
     axis -1.61767e-015 -90 -90   XYZ
    dof ry
    limits (-180.0 0.0)
  end
  begin
     id 28
     name rhand
     direction -1 -4.49027e-011 2.55483e-027   
     length 0.72009   
     axis -1.63363e-015 -90 -90   XYZ
    dof rx rz
    limits (-90.0 90.0)
           (-45.0 45.0)
  end
  begin
     id 29
     name rfingers
     direction -1 -4.48827e-011 5.14506e-027   
     length 0.580555   
     axis -3.26723e-015 -90 -90   XYZ
    dof rx
    limits (0.0 90.0)
  end
  begin
     id 30
     name rthumb
     direction -0.707107 -6.34936e-011 0.707107   
     length 0.833564   
     axis -90 -45 2.25915e-014   XYZ
    dof rx rz
    limits (-45.0 45.0)
           (-45.0 45.0)
  end
:hierarchy
  begin
    root lhipjoint rhipjoint lowerback
    lhipjoint lfemur
    lfemur ltibia
    ltibia lfoot
    lfoot ltoes
    rhipjoint rfemur
    rfemur rtibia
    rtibia rfoot
    rfoot rtoes
    lowerback upperback
    upperback thorax
    thorax lowerneck lclavicle rclavicle
    lowerneck upperneck
    upperneck head
    lclavicle lhumerus
    lhumerus lradius
    lradius lwrist
    lwrist lhand lthumb
    lhand lfingers
    rclavicle rhumerus
    rhumerus rradius
    rradius rwrist
    rwrist rhand rthumb
    rhand rfingers
  end

#!OML:ASF H:\Terrain\Patient Classification 1\Terrain2\Thursday\justin.ASF
:FULLY-SPECIFIED
:DEGREES
838
root 9.92477 17.3196 -23.2978 -360.776 -4.72854 -1.67837
lowerback 7.20881 0.894493 2.26875
upperback 3.01355 1.38599 3.42635
thorax -0.960918 0.686936 2.14748
lowerneck -16.1941 -1.89826 -8.35279
upperneck 37.6101 -0.566166 1.44361
head 16.2351 -1.23325 2.00839
rclavicle -2.26615e-014 -5.40694e-014
rhumerus -26.8335 -10.8599 -75.7455
rradius 36.5096
rwrist -12.306
rhand -21.9526 13.3626
rfingers 7.12502
rthumb 4.45452 -16.5705
lclavicle -2.26615e-014 -5.40694e-014
lhumerus -34.8679 9.85873 82.4279
lradius 28.0976
lwrist 3.71088
lhand -20.2812 23.9268
lfingers 7.12502
lthumb 6.06837 53.8199
rfemur -15.3002 -7.25031 21.6862
rtibia 46.4484
rfoot -22.2082 -1.11816
rtoes -4.61479
lfemur -7.5323 2.47738 -17.1765
ltibia 27.9014
lfoot -16.0251 -11.0766
ltoes 1.16735
839
root 9.9151 17.3293 -23.2833 -360.686 -4.40066 -1.88595
lowerback 7.16943 0.867942 2.37745
upperback 2.97064 1.35908 3.47386
thorax -0.981278 0.673982 2.13793
lowerneck -16.4214 -1.88079 -8.18521
upperneck 37.8425 -0.459541 1.17825
head 16.4047 -1.20895 1.8852
rclavicle 1.81888e-014 2.46493e-014
rhumerus -26.6906 -10.8863 -76.1117
rradius 36.977
rwrist -12.1017
rhand -21.6125 13.9049
rfingers 7.12502
rthumb 4.78295 -16.0211
lclavicle 1.81888e-014 2.46493e-014
lhumerus -34.8066 9.86156 82.4028
lradius 28.05
lwrist 3.51681
lhand -20.5131 23.6784
lfingers 7.12502
lthumb 5.84449 53.5778
rfemur -15.2277 -6.48073 21.9355
rtibia 45.6327
rfoot -22.572 0.389793
rtoes -2.63097
lfemur -7.64972 2.359 -16.9272
ltibia 27.9234
lfoot -15.8566 -11.3376
ltoes 2.21752
840
root 9.9052 17.3302 -23.2671 -360.705 -4.17467 -1.94968
lowerback 7.17973 0.845601 2.2738
upperback 2.94507 1.32524 3.52079
thorax -1.01621 0.656263 2.24699
lowerneck -16.3412 -1.80391 -8.2133
upperneck 37.8181 -0.348263 1.20342
head 16.3648 -1.1617 1.92159
rclavicle -3.8763e-015 1.82882e-014
rhumerus -26.5436 -10.7892 -76.4257
rradius 37.356
rwrist -11.9896
rhand -20.7694 14.4242
rfingers 7.12502
rthumb 5.59699 -15.4819
lclavicle -3.8763e-015 1.82882e-014
lhumerus -34.8563 10.0634 82.3242
lradius 28.0062
lwrist 3.16144
lhand -19.7724 24.8837
lfingers 7.12502
lthumb 6.55956 54.7621
rfemur -15.0485 -5.79029 22.0711
rtibia 44.8308
rfoot -22.608 1.19784
rtoes -2.82843
lfemur -7.64729 2.25622 -16.8415
ltibia 28.0072
lfoot -15.8611 -11.4842
ltoes 2.95251
841
root 9.89529 17.3193 -23.2497 -360.806 -3.89766 -1.70896
lowerback 7.21326 0.781766 1.83302
upperback 2.9301 1.21384 3.52718
thorax -1.05728 0.598279 2.50966
lowerneck -16.1904 -1.68046 -8.36907
upperneck 37.6982 -0.159346 1.29817
head 16.2537 -1.08784 2.02334
rclavicle 4.27387e-015 -2.38542e-015
rhumerus -26.5218 -10.0699 -76.8225
rradius 37.9512
rwrist -12.1499
rhand -20.4338 14.6077
rfingers 7.12502
rthumb 5.921 -15.2895
lclavicle 4.27387e-015 -2.38542e-015
lhumerus -35.0206 10.3569 82.2267
lradius 27.9061
lwrist 2.86809
lhand -18.4425 24.4117
lfingers 7.12502
lthumb 7.84329 54.2462
rfemur -14.7579 -5.23743 21.8796
rtibia 44.0366
rfoot -22.7724 1.68015
rtoes -4.3136
lfemur -7.63078 2.05218 -17.0999
ltibia 28.2142
lfoot -16.0102 -11.5378
ltoes 3.05787
842
root 9.88641 17.3052 -23.2334 -360.827 -3.47829 -1.64046
lowerback 7.19359 0.648079 1.61297
upperback 2.89241 1.02366 3.58551
thorax -1.08433 0.502114 2.7093
lowerneck -16.1324 -1.59393 -8.46855
upperneck 37.6031 0.0518912 1.16973
head 16.1799 -1.02912 2.02096
rclavicle -5.36719e-015 3.18055e-015
rhumerus -26.5791 -9.10849 -77.2969
rradius 38.8053
rwrist -12.4395
rhand -20.6665 14.2448
rfingers 7.12502
rthumb 5.69635 -15.6587
lclavicle -5.36719e-015 3.18055e-015
lhumerus -35.1914 10.6966 82.125
lradius 27.7682
lwrist 2.56551
lhand -17.6218 22.672
lfingers 7.12502
lthumb 8.63533 52.4753
rfemur -14.4319 -4.90719 21.8687
rtibia 43.2043
rfoot -23.063 2.09982
rtoes -4.47149
lfemur -7.76447 1.88395 -17.1559
ltibia 28.5377
lfoot -16.3437 -11.6782
ltoes 2.46534
843
root 9.87694 17.2914 -23.2178 -360.774 -2.98786 -1.96213
lowerback 7.10598 0.534966 1.92956
upperback 2.8787 0.892532 3.64086
thorax -1.04102 0.438257 2.59967
lowerneck -16.2932 -1.59874 -8.45591
upperneck 37.7291 0.0790562 1.13417
head 16.2834 -1.0251 2.01068
rclavicle 1.98785e-016 -2.62396e-014
rhumerus -26.5762 -8.74851 -77.7368
rradius 39.4946
rwrist -12.3546
rhand -20.6376 14.2769
rfingers 7.12502
rthumb 5.72423 -15.6258
lclavicle 1.98785e-016 -2.62396e-014
lhumerus -35.1644 10.6574 82.0893
lradius 27.6779
lwrist 2.34261
lhand -17.8824 22.5502
lfingers 7.12502
lthumb 8.38381 52.3638
rfemur -14.1183 -4.51718 22.3289
rtibia 42.3263
rfoot -23.1054 2.22851
rtoes -7.41596
lfemur -7.99188 1.76195 -16.7564
ltibia 28.8849
lfoot -16.6277 -11.9701
ltoes 1.95603
844
root 9.86158 17.2825 -23.1999 -360.719 -2.54989 -2.25307
lowerback 7.00012 0.461425 2.18025
upperback 2.88046 0.807267 3.67511
thorax -0.974611 0.397202 2.50161
lowerneck -16.4539 -1.63704 -8.44501
upperneck 37.8111 0.0400811 1.13624
head 16.3683 -1.04185 2.00454
rclavicle 1.69961e-014 1.74931e-014
rhumerus -26.4788 -8.4814 -78.1365
rradius 39.9288
rwrist -12.179
rhand -20.3515 14.9311
rfingers 7.12502
rthumb 6.0005 -14.964
lclavicle 1.69961e-014 1.74931e-014
lhumerus -35.0066 10.4522 82.1296
lradius 27.5421
lwrist 2.37801
lhand -18.1864 22.4778
lfingers 7.12502
lthumb 8.09041 52.303
rfemur -13.8641 -4.025 22.7957
rtibia 41.4438
rfoot -22.9051 2.24463
rtoes -8.69987
lfemur -8.22557 1.58296 -16.3656
ltibia 29.2183
lfoot -16.7612 -12.2967
ltoes 2.31012
845
root 9.84511 17.2772 -23.1797 -360.641 -2.31093 -2.29395
lowerback 6.83534 0.436477 2.15511
upperback 2.87878 0.764951 3.64711
thorax -0.883763 0.376435 2.49096
lowerneck -16.438 -1.69197 -8.49609
upperneck 37.6866 -0.019131 1.11508
head 16.3051 -1.07219 1.9914
rclavicle -1.07344e-014 -3.33958e-014
rhumerus -26.4165 -7.96621 -78.6083
rradius 40.4473
rwrist -12.0606
rhand -20.4649 14.898
rfingers 7.12502
rthumb 5.89101 -15.0001
lclavicle -1.07344e-014 -3.33958e-014
lhumerus -34.8905 10.3472 82.1393
lradius 27.4269
lwrist 2.47775
lhand -18.1116 21.9051
lfingers 7.12502
lthumb 8.16258 51.7274
rfemur -13.6982 -3.7084 22.9785
rtibia 40.5925
rfoot -22.3718 2.4525
rtoes -6.87626
lfemur -8.43193 1.48994 -16.2594
ltibia 29.5277
lfoot -16.9149 -12.4742
ltoes 2.53711
846
root 9.82812 17.2679 -23.1593 -360.589 -1.90308 -2.12196
lowerback 6.62641 0.390667 1.93458
upperback 2.88572 0.680134 3.54332
thorax -0.759907 0.333653 2.51486
lowerneck -16.4263 -1.80539 -8.67809
upperneck 37.6355 -0.215517 1.33662
head 16.2896 -1.1461 2.08443
rclavicle 1.09332e-015 2.38542e-015
rhumerus -26.4349 -7.64185 -79.0616
rradius 41.0161
rwrist -11.7308
rhand -21.0611 14.7321
rfingers 7.12502
rthumb 5.31532 -15.1813
lclavicle 1.09332e-015 2.38542e-015
lhumerus -34.7988 10.2665 82.1043
lradius 27.3745
lwrist 2.24775
lhand -17.7688 20.8826
lfingers 7.12502
lthumb 8.4935 50.6918
rfemur -13.5204 -3.69 22.9534
rtibia 39.8446
rfoot -21.5446 2.48831
rtoes -2.83639
lfemur -8.60232 1.48627 -16.3649
ltibia 29.7892
lfoot -17.0586 -12.8284
ltoes 2.28898
847
root 9.8012 17.2552 -23.1348 -360.73 -1.01525 -2.16623
lowerback 6.61185 0.193337 1.80148
upperback 2.85463 0.4115 3.56183
thorax -0.776902 0.198789 2.62825
lowerneck -16.3272 -1.86646 -8.80236
upperneck 37.6933 -0.341382 1.51124
head 16.3045 -1.19228 2.16134
rclavicle -1.66979e-014 -2.38542e-014
rhumerus -26.5607 -7.40586 -79.3925
rradius 41.4752
rwrist -11.4306
rhand -21.365 15.1097
rfingers 7.12502
rthumb 5.02193 -14.8108
lclavicle -1.66979e-014 -2.38542e-014
lhumerus -34.8234 9.94324 82.235
lradius 27.3408
lwrist 2.50761
lhand -18.0026 20.3557
lfingers 7.12502
lthumb 8.26781 50.1739
rfemur -13.0173 -3.88582 23.2408
rtibia 39.2186
rfoot -20.9027 1.63842
rtoes 0.231157
lfemur -8.59863 1.44686 -16.1238
ltibia 30.0033
lfoot -17.1371 -13.763
ltoes 2.58085
848
root 9.78329 17.2471 -23.118 -360.822 -0.838413 -2.52827
lowerback 6.74563 0.211284 2.05894
upperback 2.77104 0.46191 3.64866
thorax -0.937435 0.225162 2.56936
lowerneck -16.185 -1.87506 -8.72616
upperneck 37.758 -0.364385 1.43896
head 16.3043 -1.20192 2.11299
rclavicle 5.46658e-015 2.94201e-014
rhumerus -26.7077 -7.12967 -79.7042
rradius 41.9471
rwrist -11.1859
rhand -20.9532 15.0869
rfingers 7.12502
rthumb 5.41955 -14.8238
lclavicle 5.46658e-015 2.94201e-014
lhumerus -34.9024 9.54357 82.414
lradius 27.2686
lwrist 3.04622
lhand -18.7344 20.5456
lfingers 7.12502
lthumb 7.5615 50.3905
rfemur -12.6442 -3.66644 23.825
rtibia 38.7476
rfoot -20.3306 0.41353
rtoes 1.18311
lfemur -8.55885 1.45609 -15.6236
ltibia 30.1886
lfoot -17.2915 -14.0513
ltoes 2.87398
